# xmcd
# 
# Track frame offsets:
#     182
#     20932
#     31357
#     43282
#     87757
#     133207
#     148207
#     164632
#     190807
#     202582
#     222382
#     246457
#     262132
#     281182
# 
# Disc length: 3992
# 
# Revision: 0
# Processed by: cddbd v1.5.2PL0 Copyright (c) Steve Scherf et al.
# Submitted via: fre:ac v1.0.17
# 
DISCID=e80f960e
DTITLE=Various Artist - Blues Brothers Soul Sisters 2 CD2
DYEAR=0
DGENRE=Blues
TTITLE0=Gregg Smith - Lowdown
TTITLE1=Mississippi John Hurt - Creole Belle
TTITLE2=Lightnin' Hopkins - Don't Think Cause You're Pretty
TTITLE3=Luther Allison - The Thrill Is Gone
TTITLE4=Buddy Guy and Junior Wells - 10 Years Ago
TTITLE5=Louisianna Red - Alabama Train
TTITLE6=Little Walter - Juke
TTITLE7=Earl Hooker - Two Bugs In A Rug
TTITLE8=Buddy Guy - Try To Quit You
TTITLE9=Fenton Robinson - Somebody Loan Me A Dime
TTITLE10=Jimmy Johnson - When My First Wife Quit Me
TTITLE11=Sunnyland Slim - I Had It So Hard
TTITLE12=Willie Williams With Carey Bell - You Went Away Baby
TTITLE13=KoKo Taylor - Wang Dang Doodle
EXTD=
EXTT0=
EXTT1=
EXTT2=
EXTT3=
EXTT4=
EXTT5=
EXTT6=
EXTT7=
EXTT8=
EXTT9=
EXTT10=
EXTT11=
EXTT12=
EXTT13=
PLAYORDER=
